<svg xmlns="http://www.w3.org/2000/svg" version="1.1" xmlns:xlink="http://www.w3.org/1999/xlink" xmlns:svgjs="http://svgjs.dev/svgjs" width="2000" height="1500" viewBox="0 0 2000 1500"><rect width="2000" height="1500" fill="#ee3e38"></rect><g transform="matrix(0.75,0,0,0.75,249.090909090909,282.7536437246963)"><svg viewBox="0 0 396 247" data-background-color="#ee3e38" preserveAspectRatio="xMidYMid meet" height="1247" width="2000" xmlns="http://www.w3.org/2000/svg" xmlns:xlink="http://www.w3.org/1999/xlink"><g id="tight-bounds" transform="matrix(1,0,0,1,0.2400000000000091,-0.09999999999999432)"><svg viewBox="0 0 395.52 247.2" height="247.2" width="395.52"><g><svg viewBox="0 0 395.52 247.2" height="247.2" width="395.52"><g transform="matrix(1,0,0,1,2.842170943040401e-14,39.733807829181515)"><svg viewBox="0 0 395.5199999999999 167.73238434163696" height="167.73238434163696" width="395.5199999999999"><g><svg viewBox="0 0 395.5199999999999 167.73238434163696" height="167.73238434163696" width="395.5199999999999"><g><svg viewBox="0 0 395.5199999999999 167.73238434163696" height="167.73238434163696" width="395.5199999999999"><g><svg viewBox="0 0 395.5199999999999 167.73238434163696" height="167.73238434163696" width="395.5199999999999"><g id="textblocktransform"><svg viewBox="0 0 395.5199999999999 167.73238434163696" height="167.73238434163696" width="395.5199999999999" id="textblock"><g><svg viewBox="0 0 395.5199999999999 167.73238434163696" height="167.73238434163696" width="395.5199999999999"><g transform="matrix(1,0,0,1,0,0)"><svg width="395.5199999999999" viewBox="0 -32.75 85.30000305175781 36.75" height="167.73238434163696" data-palette-color="#ffffff"><path d="M4-3.4L4-25.3 9.85-28.75 20.2-28.75 20.2-23.1 10.5-23.1 10.5-5.85 20-5.85 20 0 9.85 0 4-3.4ZM38.65-9.3L32.15-9.3 32.15-5.85 22.65-5.85 22.65 0 32.8 0 38.65-3.4 38.65-9.3ZM32.15-19.6L38.65-19.6 38.65-25.3 32.8-28.75 22.45-28.75 22.45-23.1 32.15-23.1 32.15-19.6ZM46.65-3.4L46.65-25.3 52.5-28.75 62.85-28.75 62.85-22.85 53.15-22.85 53.15-5.65 62.65-5.65 62.65 0 52.5 0 46.65-3.4ZM74.8-19.45L81.3-19.45 81.3-25.3 75.45-28.75 65.1-28.75 65.1-22.85 74.8-22.85 74.8-19.45ZM81.3-3.4L81.3-17.2 65.1-17.2 65.1-11.5 74.8-11.5 74.8-5.65 65.3-5.65 65.3 0 75.45 0 81.3-3.4Z" opacity="1" transform="matrix(1,0,0,1,0,0)" fill="#ffffff" class="wordmark-text-0" data-fill-palette-color="primary" id="text-0"></path></svg></g></svg></g></svg></g></svg></g></svg></g></svg></g></svg></g></svg></g><defs></defs></svg><rect width="395.52" height="247.2" fill="none" stroke="none" visibility="hidden"></rect></g></svg></g></svg>