<?xml version="1.0" standalone="no"?>
<!DOCTYPE svg PUBLIC "-//W3C//DTD SVG 20010904//EN"
 "http://www.w3.org/TR/2001/REC-SVG-20010904/DTD/svg10.dtd">
<svg logox version="1.0" xmlns="http://www.w3.org/2000/svg"
 width="500.000000pt" height="500.000000pt" viewBox="0 0 500.000000 500.000000"
 preserveAspectRatio="xMidYMid meet">
<metadata>
Created by potrace 1.16, written by Peter Selinger 2001-2019
</metadata>
<g transform="translate(0.000000,500.000000) scale(0.100000,-0.100000)"
fill="#000000" stroke="none">
<path d="M972 4360 c-353 -352 -642 -644 -642 -648 0 -4 271 -278 602 -609
l603 -603 -603 -603 c-331 -331 -602 -605 -602 -609 0 -4 289 -296 641 -648
l641 -640 172 0 171 0 515 515 c283 283 519 515 525 515 6 0 242 -232 525
-515 l515 -515 175 0 175 0 308 308 307 307 0 674 0 675 -271 269 -271 270
271 267 271 268 0 674 0 673 -308 308 -307 307 -175 0 -175 0 -519 -519 -519
-519 -518 519 -519 519 -173 0 -173 0 -642 -640z"/>
</g>
</svg>
